<svg width="21" height="22" viewBox="0 0 21 22" fill="none" xmlns="http://www.w3.org/2000/svg">
<path d="M10.4838 5.30514C7.50948 5.30514 5.11038 7.79796 5.11038 10.8885C5.11038 13.979 7.50948 16.4718 10.4838 16.4718C13.4581 16.4718 15.8573 13.979 15.8573 10.8885C15.8573 7.79796 13.4581 5.30514 10.4838 5.30514ZM10.4838 14.5184C8.56172 14.5184 6.99038 12.8905 6.99038 10.8885C6.99038 8.88645 8.55705 7.25858 10.4838 7.25858C12.4106 7.25858 13.9773 8.88645 13.9773 10.8885C13.9773 12.8905 12.4059 14.5184 10.4838 14.5184ZM17.3304 5.07675C17.3304 5.80079 16.7692 6.37905 16.0771 6.37905C15.3802 6.37905 14.8237 5.79593 14.8237 5.07675C14.8237 4.35758 15.3849 3.77446 16.0771 3.77446C16.7692 3.77446 17.3304 4.35758 17.3304 5.07675ZM20.8893 6.39848C20.8098 4.654 20.4263 3.10874 19.1964 1.8356C17.9711 0.562464 16.4839 0.164001 14.805 0.076534C13.0747 -0.0255113 7.88829 -0.0255113 6.15794 0.076534C4.48371 0.159142 2.99654 0.557605 1.76659 1.83074C0.536642 3.10388 0.157836 4.64914 0.0736568 6.39362C-0.0245523 8.19157 -0.0245523 13.5805 0.0736568 15.3785C0.153159 17.123 0.536642 18.6682 1.76659 19.9414C2.99654 21.2145 4.47903 21.613 6.15794 21.7004C7.88829 21.8025 13.0747 21.8025 14.805 21.7004C16.4839 21.6178 17.9711 21.2194 19.1964 19.9414C20.4216 18.6682 20.8051 17.123 20.8893 15.3785C20.9875 13.5805 20.9875 8.19643 20.8893 6.39848ZM18.6539 17.3076C18.2891 18.26 17.5829 18.9938 16.6616 19.3777C15.282 19.9462 12.0084 19.815 10.4838 19.815C8.95924 19.815 5.68092 19.9414 4.306 19.3777C3.38938 18.9987 2.68321 18.2649 2.31376 17.3076C1.76659 15.8741 1.89286 12.4726 1.89286 10.8885C1.89286 9.30435 1.77127 5.89798 2.31376 4.46934C2.67853 3.51692 3.3847 2.78316 4.306 2.39928C5.6856 1.83074 8.95924 1.96194 10.4838 1.96194C12.0084 1.96194 15.2867 1.8356 16.6616 2.39928C17.5782 2.77831 18.2844 3.51206 18.6539 4.46934C19.201 5.90284 19.0748 9.30435 19.0748 10.8885C19.0748 12.4726 19.201 15.879 18.6539 17.3076Z" fill="white"/>
</svg>
