<svg width="21" height="21" viewBox="0 0 21 21" fill="none" xmlns="http://www.w3.org/2000/svg">
<path d="M10.5245 0.0722656C4.73891 0.0722656 0.0488281 4.61578 0.0488281 10.2205C0.0488281 15.8253 4.73891 20.3688 10.5245 20.3688C16.31 20.3688 21.0001 15.8253 21.0001 10.2205C21.0001 4.61578 16.31 0.0722656 10.5245 0.0722656ZM15.3801 6.97391C15.2224 8.5786 14.5403 12.4727 14.1931 14.27C14.0463 15.0305 13.7571 15.2855 13.4772 15.3104C12.869 15.3647 12.4069 14.921 11.8177 14.5468C10.8958 13.9613 10.3749 13.5968 9.47989 13.0255C8.44564 12.3653 9.11612 12.0025 9.70554 11.4091C9.85981 11.2539 12.5402 8.89213 12.592 8.67787C12.5985 8.65107 12.6047 8.55102 12.5433 8.49848C12.4819 8.44594 12.3917 8.46374 12.3264 8.47802C12.2339 8.49837 10.761 9.44147 7.9077 11.3073C7.48967 11.5854 7.11099 11.7209 6.77169 11.7138C6.39765 11.706 5.67817 11.509 5.14328 11.3405C4.48724 11.134 3.96583 11.0247 4.01124 10.6739C4.03489 10.4911 4.29467 10.3042 4.79057 10.1133C7.84444 8.82434 9.88083 7.97456 10.8997 7.56394C13.8089 6.39169 14.4134 6.18807 14.8074 6.18128C14.8941 6.17988 15.0879 6.20067 15.2134 6.29933C15.2968 6.36961 15.3501 6.46769 15.3625 6.57415C15.3837 6.70635 15.3896 6.84044 15.3801 6.97391Z" fill="white"/>
</svg>
