<svg width="118" height="105" viewBox="0 0 118 105" fill="none" xmlns="http://www.w3.org/2000/svg">
<g clip-path="url(#clip0_164_125)">
<path d="M63.9167 4.92188V7.0752C65.2278 7.32129 66.4979 7.62891 67.6451 7.93652C70.2674 8.63379 71.8243 11.3408 71.1278 13.9658C70.4313 16.5908 67.7271 18.1494 65.1049 17.4521C62.8719 16.8574 60.7823 16.4473 58.9181 16.4268C57.4226 16.4062 55.9066 16.7754 54.9438 17.3291C54.5135 17.5957 54.3087 17.8213 54.2267 17.9443C54.1653 18.0469 54.0833 18.1904 54.0833 18.5186C54.0833 18.5801 54.0833 18.6211 54.0833 18.6416C54.1243 18.6826 54.2677 18.8877 54.7594 19.1748C55.9476 19.8926 57.7094 20.4463 60.3726 21.2461L60.5569 21.3076C62.8309 21.9844 65.8628 22.9072 68.3212 24.4453C71.1278 26.209 73.6681 29.1416 73.7295 33.6533C73.791 38.2676 71.3941 41.6309 68.2597 43.5996C66.8872 44.4404 65.4121 45.0352 63.8962 45.4043V47.5781C63.8962 50.3057 61.7042 52.5 58.9795 52.5C56.2549 52.5 54.0628 50.3057 54.0628 47.5781V45.2402C52.1167 44.7686 50.3344 44.1533 48.8184 43.6406C48.3882 43.4971 47.9785 43.3535 47.5892 43.2305C45.008 42.3691 43.6149 39.5801 44.4753 36.9961C45.3358 34.4121 48.1219 33.0176 50.7031 33.8789C51.2358 34.0635 51.7274 34.2275 52.1986 34.3916C54.9847 35.335 56.9924 36.0117 59.1434 36.0938C60.7823 36.1553 62.2368 35.7656 63.0767 35.2529C63.466 35.0068 63.6503 34.8018 63.7323 34.6582C63.8142 34.5352 63.9167 34.2891 63.8962 33.8174V33.7764C63.8962 33.5713 63.8962 33.3457 63.0767 32.833C61.909 32.0947 60.1472 31.5205 57.525 30.7207L57.1358 30.5977C54.9233 29.9414 52.0142 29.0596 49.6788 27.6445C46.9132 25.9834 44.25 23.1328 44.2295 18.6006C44.209 13.9043 46.8722 10.6846 49.9042 8.87988C51.2153 8.10059 52.6288 7.56738 54.0424 7.19824V4.92188C54.0424 2.19434 56.2344 0 58.959 0C61.6837 0 63.8757 2.19434 63.8757 4.92188H63.9167ZM116.402 68.9678C119.086 72.6182 118.307 77.7451 114.661 80.4316L88.7253 99.5654C83.9316 103.093 78.1545 105 72.1931 105H39.3333H6.55556C2.92951 105 0 102.067 0 98.4375V85.3125C0 81.6826 2.92951 78.75 6.55556 78.75H14.0944L23.2927 71.3672C27.9431 67.6348 33.7201 65.625 39.6816 65.625H55.7222H59H72.1111C75.7372 65.625 78.6667 68.5576 78.6667 72.1875C78.6667 75.8174 75.7372 78.75 72.1111 78.75H59H55.7222C53.9194 78.75 52.4444 80.2266 52.4444 82.0312C52.4444 83.8359 53.9194 85.3125 55.7222 85.3125H80.4285L104.95 67.2246C108.597 64.5381 113.718 65.3174 116.402 68.9678ZM39.6611 78.75H39.4767C39.5382 78.75 39.5997 78.75 39.6611 78.75Z" fill="white"/>
</g>
<defs>
<clipPath id="clip0_164_125">
<rect width="118" height="105" fill="white"/>
</clipPath>
</defs>
</svg>
