<svg width="107" height="95" viewBox="0 0 107 95" fill="none" xmlns="http://www.w3.org/2000/svg">
<path d="M46.3667 87.4854C48.3729 88.1904 50.5278 86.7246 50.5278 84.6094V14.584C50.5278 13.8047 50.2306 13.0254 49.599 12.543C45.958 9.64844 37.5986 5.9375 26.75 5.9375C17.3689 5.9375 8.60087 8.40527 3.36233 10.4092C1.26319 11.2256 0 13.3037 0 15.5488V84.2568C0 86.4648 2.37778 88.0049 4.47691 87.3184C10.3285 85.3701 19.5981 83.125 26.75 83.125C33.0474 83.125 41.4254 85.7227 46.3667 87.4854ZM60.6333 87.4854C65.5747 85.7227 73.9526 83.125 80.25 83.125C87.4019 83.125 96.6715 85.3701 102.523 87.3184C104.622 88.0234 107 86.4648 107 84.2568V15.5488C107 13.3037 105.737 11.2256 103.638 10.4277C98.3991 8.40527 89.6311 5.9375 80.25 5.9375C69.4014 5.9375 61.042 9.64844 57.401 12.543C56.788 13.0254 56.4722 13.8047 56.4722 14.584V84.6094C56.4722 86.7246 58.6457 88.1904 60.6333 87.4854Z" fill="white"/>
</svg>
