<svg width="101" height="115" viewBox="0 0 101 115" fill="none" xmlns="http://www.w3.org/2000/svg">
<g clip-path="url(#clip0_164_123)">
<path d="M50.5 57.5C42.8466 57.5 35.5067 54.471 30.0949 49.0793C24.6832 43.6876 21.6429 36.375 21.6429 28.75C21.6429 21.125 24.6832 13.8124 30.0949 8.42068C35.5067 3.02901 42.8466 0 50.5 0C58.1534 0 65.4933 3.02901 70.9051 8.42068C76.3168 13.8124 79.3571 21.125 79.3571 28.75C79.3571 36.375 76.3168 43.6876 70.9051 49.0793C65.4933 54.471 58.1534 57.5 50.5 57.5ZM47.1409 80.6797L42.9475 73.7168C41.5047 71.3135 43.2406 68.2812 46.0362 68.2812H50.5H54.9413C57.7368 68.2812 59.4728 71.3359 58.0299 73.7168L53.8366 80.6797L61.3665 108.509L69.4826 75.5137C69.9335 73.6943 71.692 72.5039 73.5181 72.9756C89.3219 76.9287 101 91.1689 101 108.104C101 111.923 97.8888 115 94.0788 115H64.365C63.8915 115 63.4632 114.91 63.0574 114.753L63.125 115H37.875L37.9426 114.753C37.5368 114.91 37.0859 115 36.635 115H6.92121C3.11116 115 0 111.9 0 108.104C0 91.1465 11.7007 76.9062 27.4819 72.9756C29.308 72.5264 31.0665 73.7168 31.5174 75.5137L39.6335 108.509L47.1634 80.6797H47.1409Z" fill="white"/>
</g>
<defs>
<clipPath id="clip0_164_123">
<rect width="101" height="115" fill="white"/>
</clipPath>
</defs>
</svg>
