<svg width="11" height="12" viewBox="0 0 11 12" fill="none" xmlns="http://www.w3.org/2000/svg">
<path d="M4.81722 11.3098C5.14274 11.6272 5.67139 11.6272 5.99691 11.3098L10.1636 7.24731C10.4891 6.92993 10.4891 6.4145 10.1636 6.09712C9.83805 5.77974 9.30941 5.77974 8.98389 6.09712L6.23909 8.77583L6.2391 0.985985C6.2391 0.536571 5.8667 0.173485 5.40576 0.173485C4.94483 0.173485 4.57243 0.536571 4.57243 0.985985L4.57243 8.77583L1.82764 6.09966C1.50212 5.78227 0.973469 5.78227 0.647949 6.09966C0.322427 6.41704 0.322427 6.93247 0.647949 7.24985L4.81462 11.3124L4.81722 11.3098Z" fill="white"/>
</svg>
