<svg width="35" height="41" viewBox="0 0 35 41" fill="none" xmlns="http://www.w3.org/2000/svg">
<path d="M23.75 11.5313L23.75 15.375L11.25 15.375L11.25 11.5313C11.25 7.9918 14.0469 5.125 17.5 5.125C20.9531 5.125 23.75 7.9918 23.75 11.5313ZM28.75 15.375L28.75 11.5312C28.75 5.16504 23.7109 9.25828e-07 17.5 1.43519e-06C11.2891 1.94456e-06 6.25 5.16504 6.25 11.5313L6.25 15.375L5 15.375C2.24218 15.375 -2.72292e-06 17.6732 -2.4911e-06 20.5L-1.23018e-06 35.875C-9.98353e-07 38.7018 2.24219 41 5 41L30 41C32.7578 41 35 38.7018 35 35.875L35 20.5C35 17.6732 32.7578 15.375 30 15.375L28.75 15.375Z" fill="#509F51"/>
</svg>
